<mxfile host="65bd71144e">
    <diagram id="Od63W_pdOBnkHrB-RWtR" name="Page-1">
        <mxGraphModel dx="618" dy="534" grid="1" gridSize="10" guides="1" tooltips="1" connect="1" arrows="1" fold="1" page="1" pageScale="1" pageWidth="827" pageHeight="1169" math="0" shadow="0">
            <root>
                <mxCell id="0"/>
                <mxCell id="1" parent="0"/>
                <mxCell id="4incZXHbuYqxuVHDM3kM-20" value="" style="rounded=0;whiteSpace=wrap;html=1;" parent="1" vertex="1">
                    <mxGeometry x="210" y="160" width="450" height="490" as="geometry"/>
                </mxCell>
                <mxCell id="4incZXHbuYqxuVHDM3kM-23" style="edgeStyle=none;rounded=0;orthogonalLoop=1;jettySize=auto;html=1;exitX=0.5;exitY=0.5;exitDx=0;exitDy=0;exitPerimeter=0;endArrow=none;endFill=0;" parent="1" source="4incZXHbuYqxuVHDM3kM-18" target="4incZXHbuYqxuVHDM3kM-22" edge="1">
                    <mxGeometry relative="1" as="geometry"/>
                </mxCell>
                <mxCell id="4incZXHbuYqxuVHDM3kM-43" style="edgeStyle=none;rounded=0;orthogonalLoop=1;jettySize=auto;html=1;exitX=0.5;exitY=0.5;exitDx=0;exitDy=0;exitPerimeter=0;endArrow=none;endFill=0;" parent="1" source="4incZXHbuYqxuVHDM3kM-18" target="4incZXHbuYqxuVHDM3kM-25" edge="1">
                    <mxGeometry relative="1" as="geometry"/>
                </mxCell>
                <mxCell id="4incZXHbuYqxuVHDM3kM-49" style="edgeStyle=none;rounded=0;orthogonalLoop=1;jettySize=auto;html=1;exitX=0.5;exitY=0.5;exitDx=0;exitDy=0;exitPerimeter=0;endArrow=none;endFill=0;" parent="1" source="4incZXHbuYqxuVHDM3kM-18" target="4incZXHbuYqxuVHDM3kM-48" edge="1">
                    <mxGeometry relative="1" as="geometry"/>
                </mxCell>
                <mxCell id="4incZXHbuYqxuVHDM3kM-52" style="edgeStyle=none;rounded=0;orthogonalLoop=1;jettySize=auto;html=1;exitX=0.5;exitY=0.5;exitDx=0;exitDy=0;exitPerimeter=0;endArrow=none;endFill=0;" parent="1" source="4incZXHbuYqxuVHDM3kM-18" target="4incZXHbuYqxuVHDM3kM-29" edge="1">
                    <mxGeometry relative="1" as="geometry"/>
                </mxCell>
                <mxCell id="4incZXHbuYqxuVHDM3kM-18" value="User" style="shape=umlActor;verticalLabelPosition=bottom;verticalAlign=top;html=1;outlineConnect=0;" parent="1" vertex="1">
                    <mxGeometry x="130" y="300" width="30" height="60" as="geometry"/>
                </mxCell>
                <mxCell id="4incZXHbuYqxuVHDM3kM-24" style="edgeStyle=none;rounded=0;orthogonalLoop=1;jettySize=auto;html=1;exitX=0.5;exitY=0.5;exitDx=0;exitDy=0;exitPerimeter=0;endArrow=none;endFill=0;" parent="1" source="4incZXHbuYqxuVHDM3kM-21" target="4incZXHbuYqxuVHDM3kM-22" edge="1">
                    <mxGeometry relative="1" as="geometry"/>
                </mxCell>
                <mxCell id="4incZXHbuYqxuVHDM3kM-32" style="edgeStyle=none;rounded=0;orthogonalLoop=1;jettySize=auto;html=1;exitX=0.5;exitY=0.5;exitDx=0;exitDy=0;exitPerimeter=0;endArrow=none;endFill=0;" parent="1" source="4incZXHbuYqxuVHDM3kM-21" target="4incZXHbuYqxuVHDM3kM-25" edge="1">
                    <mxGeometry relative="1" as="geometry"/>
                </mxCell>
                <mxCell id="4incZXHbuYqxuVHDM3kM-38" style="edgeStyle=none;rounded=0;orthogonalLoop=1;jettySize=auto;html=1;exitX=0.5;exitY=0.5;exitDx=0;exitDy=0;exitPerimeter=0;endArrow=none;endFill=0;" parent="1" source="4incZXHbuYqxuVHDM3kM-21" target="4incZXHbuYqxuVHDM3kM-30" edge="1">
                    <mxGeometry relative="1" as="geometry"/>
                </mxCell>
                <mxCell id="4incZXHbuYqxuVHDM3kM-50" style="edgeStyle=none;rounded=0;orthogonalLoop=1;jettySize=auto;html=1;exitX=0.5;exitY=0.5;exitDx=0;exitDy=0;exitPerimeter=0;endArrow=none;endFill=0;" parent="1" source="4incZXHbuYqxuVHDM3kM-21" target="4incZXHbuYqxuVHDM3kM-48" edge="1">
                    <mxGeometry relative="1" as="geometry"/>
                </mxCell>
                <mxCell id="4incZXHbuYqxuVHDM3kM-51" style="edgeStyle=none;rounded=0;orthogonalLoop=1;jettySize=auto;html=1;exitX=0.5;exitY=0.5;exitDx=0;exitDy=0;exitPerimeter=0;endArrow=none;endFill=0;" parent="1" source="4incZXHbuYqxuVHDM3kM-21" target="4incZXHbuYqxuVHDM3kM-29" edge="1">
                    <mxGeometry relative="1" as="geometry"/>
                </mxCell>
                <mxCell id="4incZXHbuYqxuVHDM3kM-21" value="Admin" style="shape=umlActor;verticalLabelPosition=bottom;verticalAlign=top;html=1;outlineConnect=0;" parent="1" vertex="1">
                    <mxGeometry x="680" y="320" width="30" height="60" as="geometry"/>
                </mxCell>
                <mxCell id="4incZXHbuYqxuVHDM3kM-22" value="Access with token" style="ellipse;whiteSpace=wrap;html=1;" parent="1" vertex="1">
                    <mxGeometry x="375" y="180" width="120" height="40" as="geometry"/>
                </mxCell>
                <mxCell id="4incZXHbuYqxuVHDM3kM-25" value="View all products" style="ellipse;whiteSpace=wrap;html=1;" parent="1" vertex="1">
                    <mxGeometry x="375" y="240" width="120" height="40" as="geometry"/>
                </mxCell>
                <mxCell id="4incZXHbuYqxuVHDM3kM-26" value="Add a product" style="ellipse;whiteSpace=wrap;html=1;" parent="1" vertex="1">
                    <mxGeometry x="390" y="390" width="120" height="40" as="geometry"/>
                </mxCell>
                <mxCell id="4incZXHbuYqxuVHDM3kM-27" value="Update a product" style="ellipse;whiteSpace=wrap;html=1;" parent="1" vertex="1">
                    <mxGeometry x="270" y="430" width="120" height="40" as="geometry"/>
                </mxCell>
                <mxCell id="4incZXHbuYqxuVHDM3kM-28" value="Delete a product" style="ellipse;whiteSpace=wrap;html=1;" parent="1" vertex="1">
                    <mxGeometry x="220" y="370" width="120" height="40" as="geometry"/>
                </mxCell>
                <mxCell id="4incZXHbuYqxuVHDM3kM-29" value="Configure helper" style="ellipse;whiteSpace=wrap;html=1;" parent="1" vertex="1">
                    <mxGeometry x="240" y="510" width="120" height="40" as="geometry"/>
                </mxCell>
                <mxCell id="4incZXHbuYqxuVHDM3kM-30" value="Manage access tokens" style="ellipse;whiteSpace=wrap;html=1;" parent="1" vertex="1">
                    <mxGeometry x="460" y="470" width="120" height="40" as="geometry"/>
                </mxCell>
                <mxCell id="4incZXHbuYqxuVHDM3kM-48" value="Manipulate products" style="ellipse;whiteSpace=wrap;html=1;" parent="1" vertex="1">
                    <mxGeometry x="375" y="300" width="120" height="40" as="geometry"/>
                </mxCell>
                <mxCell id="4incZXHbuYqxuVHDM3kM-53" value="&amp;lt;&amp;lt;include&amp;gt;&amp;gt;" style="edgeStyle=none;html=1;endArrow=open;verticalAlign=bottom;dashed=1;labelBackgroundColor=none;rounded=0;" parent="1" source="4incZXHbuYqxuVHDM3kM-48" target="4incZXHbuYqxuVHDM3kM-26" edge="1">
                    <mxGeometry width="160" relative="1" as="geometry">
                        <mxPoint x="290" y="350" as="sourcePoint"/>
                        <mxPoint x="450" y="350" as="targetPoint"/>
                    </mxGeometry>
                </mxCell>
                <mxCell id="4incZXHbuYqxuVHDM3kM-54" value="&amp;lt;&amp;lt;include&amp;gt;&amp;gt;" style="edgeStyle=none;html=1;endArrow=open;verticalAlign=bottom;dashed=1;labelBackgroundColor=none;rounded=0;" parent="1" source="4incZXHbuYqxuVHDM3kM-48" target="4incZXHbuYqxuVHDM3kM-27" edge="1">
                    <mxGeometry width="160" relative="1" as="geometry">
                        <mxPoint x="388.55220095887967" y="325.3250985178156" as="sourcePoint"/>
                        <mxPoint x="511.5889360201311" y="374.63557440805243" as="targetPoint"/>
                    </mxGeometry>
                </mxCell>
                <mxCell id="4incZXHbuYqxuVHDM3kM-55" value="&amp;lt;&amp;lt;include&amp;gt;&amp;gt;" style="edgeStyle=none;html=1;endArrow=open;verticalAlign=bottom;dashed=1;labelBackgroundColor=none;rounded=0;" parent="1" source="4incZXHbuYqxuVHDM3kM-48" target="4incZXHbuYqxuVHDM3kM-28" edge="1">
                    <mxGeometry width="160" relative="1" as="geometry">
                        <mxPoint x="398.55220095887967" y="335.3250985178156" as="sourcePoint"/>
                        <mxPoint x="521.5889360201311" y="384.63557440805243" as="targetPoint"/>
                    </mxGeometry>
                </mxCell>
                <mxCell id="2" value="Create access tokens" style="ellipse;whiteSpace=wrap;html=1;" parent="1" vertex="1">
                    <mxGeometry x="395" y="540" width="120" height="40" as="geometry"/>
                </mxCell>
                <mxCell id="3" value="Disable access token" style="ellipse;whiteSpace=wrap;html=1;" parent="1" vertex="1">
                    <mxGeometry x="530" y="540" width="120" height="40" as="geometry"/>
                </mxCell>
                <mxCell id="4" value="&amp;lt;&amp;lt;include&amp;gt;&amp;gt;" style="edgeStyle=none;html=1;endArrow=open;verticalAlign=bottom;dashed=1;labelBackgroundColor=none;rounded=0;" parent="1" source="4incZXHbuYqxuVHDM3kM-30" target="2" edge="1">
                    <mxGeometry x="0.4022" y="-2" width="160" relative="1" as="geometry">
                        <mxPoint x="350" y="350" as="sourcePoint"/>
                        <mxPoint x="350" y="450" as="targetPoint"/>
                        <mxPoint as="offset"/>
                    </mxGeometry>
                </mxCell>
                <mxCell id="5" value="&amp;lt;&amp;lt;include&amp;gt;&amp;gt;" style="edgeStyle=none;html=1;endArrow=open;verticalAlign=bottom;dashed=1;labelBackgroundColor=none;rounded=0;" parent="1" source="4incZXHbuYqxuVHDM3kM-30" target="3" edge="1">
                    <mxGeometry y="-7" width="160" relative="1" as="geometry">
                        <mxPoint x="360" y="360" as="sourcePoint"/>
                        <mxPoint x="360" y="460" as="targetPoint"/>
                        <mxPoint as="offset"/>
                    </mxGeometry>
                </mxCell>
                <mxCell id="6" value="Change currency base" style="ellipse;whiteSpace=wrap;html=1;" parent="1" vertex="1">
                    <mxGeometry x="220" y="590" width="120" height="40" as="geometry"/>
                </mxCell>
                <mxCell id="7" value="Switch API" style="ellipse;whiteSpace=wrap;html=1;" parent="1" vertex="1">
                    <mxGeometry x="354" y="590" width="120" height="40" as="geometry"/>
                </mxCell>
                <mxCell id="8" value="&amp;lt;&amp;lt;include&amp;gt;&amp;gt;" style="edgeStyle=none;html=1;endArrow=open;verticalAlign=bottom;dashed=1;labelBackgroundColor=none;rounded=0;" parent="1" source="4incZXHbuYqxuVHDM3kM-29" target="6" edge="1">
                    <mxGeometry x="0.5862" y="-7" width="160" relative="1" as="geometry">
                        <mxPoint x="350" y="350" as="sourcePoint"/>
                        <mxPoint x="350" y="450" as="targetPoint"/>
                        <mxPoint as="offset"/>
                    </mxGeometry>
                </mxCell>
                <mxCell id="9" value="&amp;lt;&amp;lt;include&amp;gt;&amp;gt;" style="edgeStyle=none;html=1;endArrow=open;verticalAlign=bottom;dashed=1;labelBackgroundColor=none;rounded=0;" parent="1" source="4incZXHbuYqxuVHDM3kM-29" target="7" edge="1">
                    <mxGeometry x="-0.0013" y="-12" width="160" relative="1" as="geometry">
                        <mxPoint x="360" y="360" as="sourcePoint"/>
                        <mxPoint x="360" y="460" as="targetPoint"/>
                        <mxPoint as="offset"/>
                    </mxGeometry>
                </mxCell>
            </root>
        </mxGraphModel>
    </diagram>
</mxfile>
